<svg width="20" height="16" viewBox="0 0 20 16" fill="none" xmlns="http://www.w3.org/2000/svg">
<path d="M10.0135 0.00176347C11.381 0.00176347 12.6766 0.100518 13.9001 0.298027C15.1237 0.495536 16.1853 0.758882 17.085 1.08806C17.9847 1.41725 18.6955 1.80403 19.2173 2.24843C19.7391 2.69282 20 3.17837 20 3.70506C19.892 6.00933 19.4782 8.05849 18.7584 9.85253C18.4525 10.6261 18.0567 11.375 17.5709 12.0992C17.085 12.8234 16.4912 13.4818 15.7895 14.0743C15.0877 14.6668 14.26 15.1277 13.3063 15.4568C12.3527 15.786 11.2551 15.9671 10.0135 16C8.75394 16 7.64732 15.8189 6.69366 15.4568C5.73999 15.0947 4.91228 14.6339 4.21053 14.0743C3.50877 13.5147 2.91498 12.8563 2.42915 12.0992C1.94332 11.3421 1.54746 10.5932 1.24157 9.85253C0.521817 8.05849 0.107962 6.00933 0 3.70506C0 3.19483 0.260909 2.70928 0.782726 2.24843C1.30454 1.78757 2.02429 1.40079 2.94197 1.08806C3.85965 0.775341 4.92128 0.511995 6.12686 0.298027C7.33243 0.0840589 8.62798 -0.0146956 10.0135 0.00176347ZM16.6802 4.00132C16.8241 3.93549 16.8961 3.83673 16.8961 3.70506C16.8961 3.57339 16.8241 3.48286 16.6802 3.43348C16.0864 3.15368 15.2317 2.89033 14.1161 2.64345C13.0004 2.39656 11.6329 2.27312 10.0135 2.27312C8.39406 2.27312 7.02654 2.39656 5.91093 2.64345C4.79532 2.89033 3.93162 3.15368 3.31984 3.43348C3.19388 3.48286 3.1309 3.57339 3.1309 3.70506C3.1309 3.83673 3.19388 3.93549 3.31984 4.00132C3.91363 4.26467 4.77733 4.51978 5.91093 4.76667C7.04453 5.01356 8.41206 5.137 10.0135 5.137C11.6149 5.137 12.9825 5.01356 14.1161 4.76667C15.2497 4.51978 16.1044 4.26467 16.6802 4.00132Z" fill="white"/>
</svg>
