<svg width="20" height="16" viewBox="0 0 20 16" fill="none" xmlns="http://www.w3.org/2000/svg">
<path d="M15.2507 5.99983H10.5007V7.74998C10.5007 8.99071 9.49132 10.0002 8.2507 10.0002C7.01007 10.0002 6.0007 8.99071 6.0007 7.74998V3.94966L3.97258 5.16851C3.36946 5.52792 3.00071 6.1811 3.00071 6.88116V8.3594L0.500712 9.80328C0.0225877 10.0783 -0.143037 10.6909 0.135087 11.169L2.63508 15.5006C2.91008 15.9788 3.52258 16.1413 4.00071 15.8663L7.23195 14.0005H11.5007C12.6038 14.0005 13.5007 13.1036 13.5007 12.0003H14.0007C14.5538 12.0003 15.0007 11.5534 15.0007 11.0003V9.00008H15.2507C15.6663 9.00008 16.0007 8.66568 16.0007 8.25002V6.74989C16.0007 6.33423 15.6663 5.99983 15.2507 5.99983ZM19.8663 4.83098L17.3663 0.499366C17.0913 0.0212008 16.4788 -0.141313 16.0007 0.13371L12.7694 1.99949H9.57569C9.20069 1.99949 8.83507 2.10575 8.51632 2.30264L7.46945 2.95582C7.1757 3.13709 7.0007 3.45899 7.0007 3.80277V7.74998C7.0007 8.44066 7.56007 9.00008 8.2507 9.00008C8.94132 9.00008 9.50069 8.44066 9.50069 7.74998V4.99975H15.2507C16.2163 4.99975 17.0007 5.78419 17.0007 6.74989V7.64059L19.5007 6.19672C19.9788 5.91857 20.1413 5.30915 19.8663 4.83098Z" fill="white"/>
</svg>
