<svg width="20" height="20" viewBox="0 0 20 20" fill="none" xmlns="http://www.w3.org/2000/svg">
<path d="M19.7911 4.64665C17.9679 3.19858 15.1615 2.33371 12.2834 2.33371C8.72452 2.33371 5.82431 3.63598 4.32783 5.90695C3.62491 6.97285 3.23604 8.23647 3.17175 9.66024C3.11485 10.9283 3.31824 12.3311 3.77561 13.8399C5.33743 8.93123 9.70039 5.08848 14.7304 5.08848C14.7304 5.08848 10.0239 6.38633 7.0647 10.408C6.38948 11.32 5.84748 12.3322 5.45651 13.4113C4.62075 15.4974 4.1908 17.7374 4.19189 20H6.2996C6.2996 20 5.97923 17.8903 6.53566 15.4647C7.35856 15.5878 8.18839 15.6531 9.0196 15.6602C10.9576 15.6602 12.335 15.2206 13.3562 14.2773C14.271 13.4323 14.7758 12.2957 15.3101 11.094C16.1258 9.25708 17.05 7.17609 19.7342 5.56896C19.8099 5.52368 19.8737 5.45942 19.9199 5.38193C19.9661 5.30445 19.9933 5.21615 19.9989 5.12497C20.0045 5.03378 19.9885 4.94255 19.9522 4.85946C19.916 4.77637 19.8606 4.70401 19.7911 4.64886V4.64665Z" fill="white"/>
<path d="M0.156912 1.73536C1.52625 0.648895 3.63408 0 5.79573 0C8.4687 0 10.647 0.977072 11.7709 2.68094C12.2989 3.48066 12.0719 4.02686 12.1202 5.0951C10.8281 5.0951 10.186 5.91669 9.48469 4.97051C8.31165 1.28764 7.73575 2.06685 3.95781 2.06685C3.95781 2.06685 7.26209 1.95311 9.48469 4.97051C9.19104 4.16084 9.99183 5.65473 9.48469 4.97051C10.1124 6.53568 7.90392 7.17963 7.90392 7.17963C6.44831 7.17963 5.75694 9.66878 4.98996 8.96105C4.30291 8.32707 3.92377 7.47431 3.52247 6.57265C2.90983 5.19447 2.21567 3.63315 0.199654 2.42735C0.142776 2.39338 0.0948379 2.34516 0.0601348 2.28703C0.0254317 2.22889 0.00504853 2.16264 0.000812591 2.09423C-0.00342335 2.02581 0.00862075 1.95737 0.0358642 1.89502C0.0631077 1.83268 0.104699 1.77839 0.156912 1.73702V1.73536Z" fill="white"/>
</svg>
